<svg width="33.87mm" height="33.87mm" version="1.1" viewBox="0 0 33.87 33.87" xmlns="http://www.w3.org/2000/svg">
 <g transform="translate(-31.34 -86.69)">
  <path d="m46.29 117.8c-2.893-1.568-5-3.163-7.444-5.636-4.162-4.212-6.609-8.551-7.289-12.92-0.265-1.705-0.2445-2.214 0.1467-3.645 1.895-6.93 10.09-9.293 15.36-4.431l1.21 1.116 1.21-1.116c2.445-2.253 5.762-3.118 8.73-2.276 3.257 0.9247 5.773 3.454 6.588 6.621 0.4965 1.931 0.4984 2.44 0.01704 4.711-1.115 5.262-5.699 11.58-11.27 15.53-1.869 1.326-4.837 2.925-5.405 2.913-0.1455-3e-3 -0.979-0.3929-1.852-0.8661zm3.941-10.68c1.794-2.163 3.692-3.934 4.911-4.583 0.767-0.4081 2.083-0.4191 2.482-0.0207 0.9963 0.9963 0.9262-0.7782-0.1128-2.857-2.738-5.478-10.46-5.448-13.21 0.05217-1.419 2.84-0.8433 6.601 1.178 7.69 0.4913 0.2646 1.285 0.8851 1.763 1.379s0.9434 0.8083 1.033 0.6989c0.08937-0.1094 0.9687-1.171 1.954-2.359z" fill="#fccb4d" stroke-width=".2646"/>
  <ellipse cx="51" cy="102.9" rx="7.743" ry="7.718" fill="#fce6b2" stroke-width=".2631"/>
  <path d="m50.92 91.28c-0.2901-6.12e-4 -0.5806 0.5325-0.9266 1.6-0.291 0.898-0.6078 1.711-0.7038 1.807-0.09602 0.09542-0.6756-0.4907-1.288-1.302-1.61-2.133-1.964-2.004-1.76 0.6403l0.1633 2.116-1.837-0.9255c-1.01-0.5088-1.9-0.925-1.976-0.925-0.3782 0-0.05412 1.179 0.6547 2.381 0.9501 1.611 0.984 1.906 0.1984 1.727-1.26-0.2877-3.45-0.2679-3.556 0.03204-0.05895 0.1667 0.628 0.8807 1.527 1.587l1.635 1.284-2.019 0.6098c-1.259 0.3801-2.018 0.7481-2.018 0.9782 0 0.2302 0.7595 0.5981 2.018 0.9782l2.019 0.6098-1.635 1.284c-0.899 0.7063-1.586 1.421-1.527 1.588s0.4976 0.2835 0.9751 0.2599l0.8682-0.0429-1.163 1.17h6.666c-0.4286-0.392-1.116-0.9225-1.694-1.298-0.3193-0.2072-0.7219-0.2232-0.9002-0.4841-0.7373-1.079-1.206-2.109-1.206-4.066 0-2.264 0.4776-3.44 2.104-5.178 2.951-3.155 7.824-3.14 10.79 0.03307 1.341 1.433 1.834 2.403 2.126 4.174l0.1728 1.298-0.8585-0.5052c-1.822-0.942-2.954-0.4232-6.197 2.987-1.022 1.075-2.215 2.409-2.649 2.964l-0.05891 0.0749h11.84c1.609-2.047 1.477-2.234 0.3147-3.418-0.6076-0.6192-1.105-1.197-1.105-1.285s0.4445-0.2423 0.9875-0.3442c1.154-0.2164 1.923-0.5875 1.923-0.9266 0-0.132-0.8334-0.508-1.852-0.8361-1.019-0.3281-1.852-0.678-1.852-0.7772s0.6548-0.6853 1.455-1.303c2.135-1.647 1.921-2.02-0.9307-1.623-0.9433 0.1314-1.753 0.2051-1.799 0.1638s0.2815-0.7984 0.7276-1.682c0.7505-1.487 1.009-2.415 0.6723-2.415-0.07639 0-0.9657 0.4162-1.976 0.925l-1.837 0.9255 0.1633-2.116c0.2026-2.628-0.09692-2.739-1.733-0.6444-0.632 0.8092-1.226 1.397-1.319 1.306s-0.4087-0.9018-0.6997-1.802c-0.3456-1.069-0.6354-1.603-0.9255-1.604z" fill="#ef9613" stroke-width=".2646"/>
  <path d="m46.29 117.8c-2.43-1.317-4.58-2.858-6.58-4.717l-1.678-1.78 1.988-1.942c3.227-3.152 4.192-3.22 6.968-0.7729l1.228 1.082 0.7422-0.9891c1.118-1.49 4.339-4.798 5.507-5.655 0.6245-0.4586 1.364-0.7578 1.873-0.7578 1.029 0 2.721 1.089 4.484 2.886 0.6814 0.6945 1.299 1.409 1.31 1.451 0.01377 0.0512-0.509 1.072-2.126 3.162-1.634 2.112-4.747 4.848-7.199 6.567-1.583 1.11-4.159 2.336-4.666 2.33-0.1455-2e-3 -0.979-0.3906-1.852-0.8637z" fill="#5d8f3a" stroke-width=".2646"/>
  <path d="m45.83 117.6c-2.159-1.181-4.897-3.325-6.522-4.985l-1.291-1.36 1.719-1.612c2.895-2.715 3.874-3.402 5.721-2.278 2.233 1.358 4.584 4.149 7.134 7.585l0.7341 0.9909-1.528 1.056c-0.9007 0.695-2.807 1.616-3.559 1.635-0.6459 0.0165-2.09-0.8362-2.409-1.031z" fill="#3d711b" stroke-width=".2646"/>
 </g>
</svg>
